# xmcd
#
# Track frame offsets:
#	150
#	15623
#	29488
#	45589
#	62073
#	78020
#	96186
#	115597
#	131023
#	149433
#	164958
#	181971
#	199033
#	211658
#
# Disc length: 2831 seconds
#
# Revision: 1
# Processed by: cddbd v1.4PL0 Copyright (c) Steve Scherf et al.
# Submitted via: audiograbber 1.80
#
DISCID=be0b0d0e
DTITLE=CDX - Volume 304 November 2002
DYEAR=1900
DGENRE=
TTITLE0=Bellamy Brothers - Can I Come Home To You
TTITLE1=Dolly Parton - Hello God
TTITLE2=Diamond Rio - I Believe
TTITLE3=Pinmonkey - I Drove All Night
TTITLE4=Daron Norwood - In God We Trust
TTITLE5=Alison Krauss and Union Station - New Favorite
TTITLE6=Kid Rock f/ Allison Moorer - Picture
TTITLE7=Doug Stone - P.O.W. 369
TTITLE8=Lee Greenwood - Rocks That You Can't Move
TTITLE9=Porter Wagoner - Silence In The Wind
TTITLE10=Eric Heatherly - Sometimes It's Just Your Time
TTITLE11=Chris Cagle - What A Beautiful Day
TTITLE12=Duane Michaels - Little Bit Of Love
TTITLE13=Bellamy Brothers - Happy Thanksgiving
EXTD=
EXTT0=
EXTT1=
EXTT2=
EXTT3=
EXTT4=
EXTT5=
EXTT6=
EXTT7=
EXTT8=
EXTT9=
EXTT10=
EXTT11=
EXTT12=
EXTT13=
PLAYORDER=
